<svg id="Layer_1" data-name="Layer 1" xmlns="http://www.w3.org/2000/svg" xmlns:xlink="http://www.w3.org/1999/xlink" viewBox="0 0 420 247.14"><defs><style>.cls-1{fill:none;}.cls-2{clip-path:url(#clip-path);}.cls-3{fill:#ee2424;}.cls-4,.cls-6{fill:#f7c314;}.cls-5{fill:#ed1c24;opacity:0.92;}.cls-6{opacity:0.54;}</style><clipPath id="clip-path" transform="translate(-110.14 -173.8)"><ellipse class="cls-1" cx="321.75" cy="298.66" rx="222.75" ry="152.84"/></clipPath></defs><title>Untitled-2</title><g class="cls-2"><path class="cls-3" d="M320.85,210.79A122.85,122.85,0,1,0,319.44,384a122.83,122.83,0,0,1,1.41-173.17Z" transform="translate(-110.14 -173.8)"/><path class="cls-4" d="M407.29,175.23a122.47,122.47,0,0,0-86.44,35.56A122.83,122.83,0,0,1,319.44,384a122.85,122.85,0,1,0,87.85-208.73Z" transform="translate(-110.14 -173.8)"/><path class="cls-5" d="M359,296.64c0-33.69-14.67-64.24-38.44-86.57-24.69,22.45-40,53.59-40,88,0,33.69,14.66,64.23,38.43,86.56C343.74,362.2,359,331.06,359,296.64Z" transform="translate(-110.14 -173.8)"/><path class="cls-6" d="M359,296.64a120.39,120.39,0,0,0-36.22-85.87c-23.27,22.27-37.68,53.16-37.68,87.3a120.38,120.38,0,0,0,36.21,85.87C344.62,361.68,359,330.79,359,296.64Z" transform="translate(-110.14 -173.8)"/></g></svg>