<svg id="Layer_1" data-name="Layer 1" xmlns="http://www.w3.org/2000/svg" xmlns:xlink="http://www.w3.org/1999/xlink" viewBox="0 0 346.99 103.29"><defs><style>.cls-1{fill:none;}.cls-2{clip-path:url(#clip-path);}.cls-3{fill:#231f20;}.cls-4{fill:#1b75bc;}.cls-5{fill:#fff;}.cls-6{fill:#f7941d;}</style><clipPath id="clip-path" transform="translate(-119.5 -272.65)"><rect class="cls-1" x="99" y="230.66" width="397.29" height="190.29"/></clipPath></defs><title>VIISAA</title><g class="cls-2"><path class="cls-3" d="M83.57,430.27" transform="translate(-119.5 -272.65)"/><path class="cls-4" d="M179,281,148.5,285.3l28.28,90.64h29.57l42.43-101.57H219.85L191.57,343.8Q185.26,312.38,179,281Z" transform="translate(-119.5 -272.65)"/><polygon class="cls-4" points="167.85 1.72 140.85 1.72 122.84 103.29 152.42 103.29 167.85 1.72"/><path class="cls-4" d="M368.67,297.2l3.86-19.93s-28-8-43.39-2.9c-4.47,1.49-25.7,8.79-28.61,25.4-.13.72-1.83,11.32,4.39,19.6,2.45,3.27,5.51,5.34,9,7.72,4.06,2.75,5.34,2.85,12.65,6.86,10.27,5.62,11.35,7.4,11.78,9,.91,3.3-.6,7.13-3,9.34-2.67,2.51-6.18,2.71-8.5,2.76-14.45.35-29.15-3.87-35.68-5.78h0l-3.86,22.17c9.15,2.1,36.24,7.56,57.86,0a35.61,35.61,0,0,0,13.71-8.14c1.58-1.54,11-11.08,9.75-24a20.63,20.63,0,0,0-3.1-9.85s-2-3.09-13-10.4c0,0-23.14-10.28-22.66-17.68s14-7.07,14-7.07Z" transform="translate(-119.5 -272.65)"/><path class="cls-4" d="M366.42,374l42.86-95.15s5.14-5.57,9.22-5.35,25.5,0,25.5,0l22.5,101.81H441.21l-4.29-16.09L402,359l-6.43,16.3Z" transform="translate(-119.5 -272.65)"/><polygon class="cls-5" points="305.42 29.58 290.64 65.58 313.14 65.58 305.42 29.58"/><path class="cls-6" d="M122.78,274.37h48.7s7.76,2.35,9,8.85,7.29,39.71,7.29,39.71c-2.13-2.94-5.27-7.18-9.21-12.18-5.48-7-8.22-10.46-10.11-12.27C158,288.52,144,283.7,144,283.7h0s-9.17-4.5-14.79-5.63-7.88-1.61-7.88-1.61-3.37-2.09-1-2.09Z" transform="translate(-119.5 -272.65)"/></g></svg>